<svg width="720" height="960" viewBox="0 0 720 960" fill="none" xmlns="http://www.w3.org/2000/svg">
  <defs>
    <linearGradient id="sky" x1="70" y1="0" x2="630" y2="960" gradientUnits="userSpaceOnUse">
      <stop stop-color="#91D3D0"/>
      <stop offset="0.5" stop-color="#3B8D83"/>
      <stop offset="1" stop-color="#123C38"/>
    </linearGradient>
    <linearGradient id="metal" x1="84" y1="220" x2="544" y2="760" gradientUnits="userSpaceOnUse">
      <stop stop-color="#E6F5EC"/>
      <stop offset="0.34" stop-color="#8ED6A4"/>
      <stop offset="0.7" stop-color="#298650"/>
      <stop offset="1" stop-color="#0B5530"/>
    </linearGradient>
    <linearGradient id="darkMetal" x1="260" y1="260" x2="580" y2="880" gradientUnits="userSpaceOnUse">
      <stop stop-color="#2C7169"/>
      <stop offset="1" stop-color="#082F2B"/>
    </linearGradient>
    <filter id="shadow" x="-40%" y="-40%" width="180%" height="180%">
      <feDropShadow dx="0" dy="18" stdDeviation="18" flood-color="#052C27" flood-opacity=".34"/>
    </filter>
  </defs>
  <rect width="720" height="960" fill="url(#sky)"/>
  <circle cx="595" cy="142" r="210" fill="#DFFAE8" fill-opacity=".14"/>
  <circle cx="108" cy="754" r="275" fill="#052F2A" fill-opacity=".18"/>
  <g opacity=".16" stroke="#E9FFF0">
    <path d="M0 128H720M0 256H720M0 384H720M0 512H720M0 640H720M0 768H720M0 896H720"/>
    <path d="M120 0V960M240 0V960M360 0V960M480 0V960M600 0V960"/>
  </g>
  <path d="M-20 754L138 674L242 713L371 615L472 677L740 516V960H-20V754Z" fill="#0A322F"/>
  <rect x="340" y="430" width="286" height="430" rx="10" fill="url(#darkMetal)" filter="url(#shadow)"/>
  <path d="M365 487H600M365 550H600M365 613H600M365 676H600M365 739H600" stroke="#8FD6C0" stroke-opacity=".24" stroke-width="8"/>
  <path d="M426 430V860M533 430V860" stroke="#052F2A" stroke-opacity=".62" stroke-width="12"/>
  <path d="M117 735V317C117 265 159 223 211 223H432V298H236C211 298 191 318 191 343V735" stroke="url(#metal)" stroke-width="72" stroke-linecap="round" filter="url(#shadow)"/>
  <path d="M258 736V407C258 370 288 340 325 340H498V415H352C341 415 332 424 332 435V736" stroke="url(#metal)" stroke-width="64" stroke-linecap="round" filter="url(#shadow)"/>
  <path d="M90 778H358" stroke="#BFF2CD" stroke-opacity=".58" stroke-width="10"/>
  <path d="M90 818H358" stroke="#BFF2CD" stroke-opacity=".28" stroke-width="8"/>
  <g fill="#DFFFF0">
    <circle cx="154" cy="338" r="8"/>
    <circle cx="295" cy="432" r="7"/>
    <circle cx="197" cy="674" r="7"/>
  </g>
  <g transform="translate(475 205)">
    <rect width="166" height="68" rx="34" fill="#F4FFF7" fill-opacity=".9"/>
    <circle cx="35" cy="34" r="17" fill="#198038"/>
    <path d="M27 34L33 40L44 27" stroke="white" stroke-width="4" stroke-linecap="round" stroke-linejoin="round"/>
    <text x="64" y="30" fill="#123C38" font-family="Arial, sans-serif" font-size="14" font-weight="700">SISTEMA</text>
    <text x="64" y="48" fill="#39706A" font-family="Arial, sans-serif" font-size="12">monitorado por IA</text>
  </g>
</svg>
